<svg width="24" height="27" viewBox="0 0 24 27" fill="none" xmlns="http://www.w3.org/2000/svg">
<path d="M21.875 22.5C21.875 22.6658 21.8092 22.8247 21.6919 22.9419C21.5747 23.0592 21.4158 23.125 21.25 23.125H14.085C13.7274 23.811 13.2736 24.4423 12.7375 25H21.25C21.913 25 22.5489 24.7366 23.0178 24.2678C23.4866 23.7989 23.75 23.163 23.75 22.5V9.785C23.7499 9.12201 23.4864 8.48623 23.0175 8.0175L15.7312 0.7325C15.2591 0.269591 14.6262 0.00713319 13.965 0H6.25C5.58696 0 4.95107 0.263392 4.48223 0.732233C4.01339 1.20107 3.75 1.83696 3.75 2.5V11.8725C4.35159 11.6221 4.98111 11.445 5.625 11.345V2.5C5.625 2.33424 5.69085 2.17527 5.80806 2.05806C5.92527 1.94085 6.08424 1.875 6.25 1.875H13.75V7.5C13.75 8.16304 14.0134 8.79893 14.4822 9.26777C14.9511 9.73661 15.587 10 16.25 10H21.875V22.5ZM15.625 3.27625L20.4725 8.125H16.25C16.0842 8.125 15.9253 8.05915 15.8081 7.94194C15.6908 7.82473 15.625 7.66576 15.625 7.5V3.27625ZM13.75 19.375C13.75 20.2778 13.5722 21.1718 13.2267 22.0059C12.8812 22.8401 12.3748 23.598 11.7364 24.2364C11.098 24.8748 10.3401 25.3812 9.50595 25.7267C8.67184 26.0722 7.77784 26.25 6.875 26.25C5.97216 26.25 5.07817 26.0722 4.24405 25.7267C3.40994 25.3812 2.65204 24.8748 2.01364 24.2364C1.37524 23.598 0.868829 22.8401 0.523328 22.0059C0.177827 21.1718 -1.34533e-08 20.2778 0 19.375C2.71702e-08 17.5516 0.724328 15.803 2.01364 14.5136C3.30295 13.2243 5.05164 12.5 6.875 12.5C8.69836 12.5 10.447 13.2243 11.7364 14.5136C13.0257 15.803 13.75 17.5516 13.75 19.375ZM11.0675 16.4325C11.0094 16.3743 10.9405 16.3281 10.8645 16.2966C10.7886 16.2651 10.7072 16.2489 10.625 16.2489C10.5428 16.2489 10.4614 16.2651 10.3855 16.2966C10.3095 16.3281 10.2406 16.3743 10.1825 16.4325L5.625 20.9912L3.5675 18.9325C3.45014 18.8151 3.29097 18.7492 3.125 18.7492C2.95903 18.7492 2.79986 18.8151 2.6825 18.9325C2.56514 19.0499 2.49921 19.209 2.49921 19.375C2.49921 19.541 2.56514 19.7001 2.6825 19.8175L5.1825 22.3175C5.24056 22.3757 5.30953 22.4219 5.38546 22.4534C5.46139 22.4849 5.54279 22.5011 5.625 22.5011C5.70721 22.5011 5.78861 22.4849 5.86454 22.4534C5.94047 22.4219 6.00944 22.3757 6.0675 22.3175L11.0675 17.3175C11.1257 17.2594 11.1719 17.1905 11.2034 17.1145C11.2349 17.0386 11.2511 16.9572 11.2511 16.875C11.2511 16.7928 11.2349 16.7114 11.2034 16.6355C11.1719 16.5595 11.1257 16.4906 11.0675 16.4325Z" fill="#688F71"/>
</svg>
