<svg width="25" height="25" viewBox="0 0 25 25" fill="none" xmlns="http://www.w3.org/2000/svg">
<path d="M9.82535 0.181418C9.96379 0.229215 10.0994 0.285252 10.232 0.349531L11.8179 1.13076C12.0302 1.23524 12.2637 1.28958 12.5003 1.28958C12.7369 1.28958 12.9703 1.23524 13.1826 1.13076L14.7685 0.349531C15.169 0.152349 15.6045 0.0359985 16.05 0.00712326C16.4955 -0.021752 16.9423 0.0374137 17.365 0.181241C17.7876 0.325069 18.1778 0.550741 18.5132 0.845371C18.8486 1.14 19.1227 1.49782 19.3198 1.89839L19.4101 2.09864L19.4879 2.30507L20.0565 3.97754C20.2111 4.43243 20.5683 4.78844 21.0219 4.94295L22.6956 5.51157C23.1534 5.66733 23.5727 5.91898 23.9255 6.24972C24.2784 6.58046 24.5565 6.98267 24.7415 7.42949C24.9265 7.87631 25.014 8.35745 24.9982 8.84078C24.9824 9.32412 24.8636 9.79852 24.6499 10.2323L23.8699 11.8182C23.7654 12.0305 23.7111 12.264 23.7111 12.5006C23.7111 12.7372 23.7654 12.9706 23.8699 13.1829L24.6499 14.7689C24.8634 15.2026 24.982 15.6769 24.9977 16.1601C25.0134 16.6433 24.9258 17.1243 24.7409 17.5709C24.5559 18.0176 24.2778 18.4197 23.9251 18.7503C23.5724 19.081 23.1533 19.3326 22.6956 19.4884L21.0219 20.057C20.7981 20.1334 20.5947 20.2601 20.4275 20.4275C20.2604 20.5949 20.1339 20.7984 20.0578 21.0224L19.4879 22.6961C19.3322 23.1538 19.0805 23.5729 18.7499 23.9256C18.4192 24.2783 18.0172 24.5564 17.5705 24.7414C17.1239 24.9263 16.6429 25.0139 16.1597 24.9982C15.6765 24.9825 15.2022 24.864 14.7685 24.6504L13.1826 23.8704C12.9703 23.7659 12.7369 23.7116 12.5003 23.7116C12.2637 23.7116 12.0302 23.7659 11.8179 23.8704L10.232 24.6504C9.7983 24.864 9.32402 24.9825 8.84084 24.9982C8.35765 25.0139 7.87668 24.9263 7.43002 24.7414C6.98336 24.5564 6.58129 24.2783 6.25064 23.9256C5.92 23.5729 5.66839 23.1538 5.5126 22.6961L4.94399 21.0224C4.86749 20.7984 4.74054 20.5949 4.57294 20.4278C4.40534 20.2606 4.20157 20.1341 3.97736 20.0582L2.30492 19.4884C1.84716 19.3327 1.42787 19.0812 1.07505 18.7506C0.722229 18.42 0.44399 18.0179 0.258909 17.5713C0.0738286 17.1246 -0.0138348 16.6436 0.00177135 16.1603C0.0173775 15.677 0.135894 15.2027 0.349409 14.7689L1.13062 13.1829C1.23511 12.9706 1.28944 12.7372 1.28944 12.5006C1.28944 12.264 1.23511 12.0305 1.13062 11.8182L0.349409 10.2323C0.135894 9.7985 0.0173775 9.32413 0.00177135 8.84088C-0.0138348 8.35762 0.0738286 7.87659 0.258909 7.42991C0.44399 6.98323 0.722229 6.58117 1.07505 6.25058C1.42787 5.91998 1.84716 5.66846 2.30492 5.5128L3.97736 4.94419C4.20161 4.86785 4.4053 4.74097 4.57269 4.57336C4.74009 4.40575 4.8667 4.20189 4.94276 3.97754L5.51136 2.30507C5.6551 1.88231 5.88072 1.49201 6.17534 1.15646C6.46995 0.820919 6.82779 0.546709 7.2284 0.349498C7.62902 0.152286 8.06456 0.0359371 8.51015 0.00709748C8.95575 -0.0217421 9.40266 0.0374927 9.82535 0.181418ZM16.7895 8.75391L10.0899 15.4537L7.64981 12.5241C7.57298 12.4272 7.47755 12.3467 7.36915 12.2873C7.26074 12.2279 7.14155 12.1908 7.01858 12.1781C6.89562 12.1654 6.77136 12.1775 6.65312 12.2136C6.53488 12.2496 6.42504 12.309 6.33008 12.3881C6.23511 12.4672 6.15693 12.5646 6.10014 12.6744C6.04334 12.7842 6.00908 12.9042 5.99937 13.0275C5.98965 13.1507 6.00469 13.2746 6.04358 13.392C6.08247 13.5093 6.14443 13.6177 6.22583 13.7107L9.31608 17.4191C9.39847 17.518 9.50057 17.5987 9.61587 17.656C9.73116 17.7133 9.85713 17.746 9.98575 17.7519C10.1144 17.7578 10.2428 17.7369 10.3629 17.6905C10.483 17.644 10.5921 17.5731 10.6832 17.4821L18.0998 10.0654C18.1909 9.98056 18.2639 9.87821 18.3146 9.76448C18.3653 9.65076 18.3925 9.528 18.3947 9.40352C18.3969 9.27904 18.374 9.15539 18.3274 9.03995C18.2808 8.92451 18.2114 8.81965 18.1233 8.73161C18.0353 8.64358 17.9304 8.57417 17.815 8.52755C17.6996 8.48092 17.5759 8.45802 17.4514 8.46022C17.327 8.46241 17.2042 8.48966 17.0905 8.54033C16.9768 8.591 16.8744 8.66406 16.7895 8.75514" fill="#527ABE"/>
</svg>
