<svg width="20" height="23" viewBox="0 0 20 23" fill="none" xmlns="http://www.w3.org/2000/svg">
<path d="M10.5 8.4H16.8V7.5796C16.8001 7.3855 16.7732 7.19233 16.7202 7.0056L16.7188 7C16.6204 6.65823 16.4369 6.34704 16.1854 6.0956L10.7044 0.6146C10.3107 0.221174 9.77697 0.000118834 9.2204 0H2.8C2.05739 0 1.3452 0.294999 0.820101 0.820101C0.294999 1.3452 0 2.05739 0 2.8V19.6C0 20.3426 0.294999 21.0548 0.820101 21.5799C1.3452 22.105 2.05739 22.4 2.8 22.4H5.9094L5.8912 22.3636C5.67343 21.9436 5.57422 21.4722 5.6042 21H2.8C2.4287 21 2.0726 20.8525 1.81005 20.59C1.5475 20.3274 1.4 19.9713 1.4 19.6V2.8C1.4 2.4287 1.5475 2.0726 1.81005 1.81005C2.0726 1.5475 2.4287 1.4 2.8 1.4H8.4V6.3C8.4 6.85695 8.62125 7.3911 9.01508 7.78492C9.4089 8.17875 9.94305 8.4 10.5 8.4ZM10.5 7C10.3143 7 10.1363 6.92625 10.005 6.79497C9.87375 6.6637 9.8 6.48565 9.8 6.3V1.6898L15.1102 7H10.5ZM15.134 10.5672C15.3765 10.3211 15.6652 10.1253 15.9837 9.99132C16.3022 9.85731 16.644 9.78765 16.9895 9.78638C17.335 9.78511 17.6773 9.85224 17.9968 9.9839C18.3162 10.1156 18.6064 10.3092 18.8507 10.5535C19.095 10.7979 19.2884 11.0882 19.42 11.4076C19.5515 11.7271 19.6185 12.0695 19.6171 12.415C19.6157 12.7605 19.5459 13.1023 19.4118 13.4207C19.2777 13.7391 19.0818 14.0278 18.8356 14.2702L12.0736 21.0308C11.6796 21.4247 11.186 21.7044 10.6456 21.84L8.5484 22.3636C8.33987 22.4156 8.12144 22.4127 7.91433 22.3553C7.70723 22.2979 7.51849 22.1879 7.36645 22.036C7.21442 21.8841 7.10426 21.6955 7.04667 21.4885C6.98908 21.2814 6.98603 21.063 7.0378 20.8544L7.5628 18.7572C7.6984 18.2168 7.97807 17.7232 8.372 17.3292L15.134 10.5672Z" fill="black"/>
</svg>
