<svg width="25" height="25" viewBox="0 0 25 25" fill="none" xmlns="http://www.w3.org/2000/svg">
<path d="M9.82535 0.181418C9.96379 0.229215 10.0994 0.285252 10.232 0.349531L11.8179 1.13076C12.0302 1.23524 12.2637 1.28958 12.5003 1.28958C12.7369 1.28958 12.9703 1.23524 13.1826 1.13076L14.7685 0.349531C15.169 0.152349 15.6045 0.0359985 16.05 0.00712326C16.4955 -0.021752 16.9423 0.0374137 17.365 0.181241C17.7876 0.325069 18.1778 0.550741 18.5132 0.845371C18.8486 1.14 19.1227 1.49782 19.3198 1.89839L19.4101 2.09864L19.4879 2.30507L20.0565 3.97754C20.2111 4.43243 20.5683 4.78844 21.0219 4.94295L22.6956 5.51157C23.1534 5.66733 23.5727 5.91898 23.9255 6.24972C24.2784 6.58046 24.5565 6.98267 24.7415 7.42949C24.9265 7.87631 25.014 8.35745 24.9982 8.84078C24.9824 9.32412 24.8637 9.79852 24.6499 10.2323L23.8699 11.8182C23.7654 12.0305 23.7111 12.264 23.7111 12.5006C23.7111 12.7372 23.7654 12.9706 23.8699 13.1829L24.6499 14.7689C24.8634 15.2026 24.982 15.6769 24.9977 16.1601C25.0134 16.6433 24.9258 17.1243 24.7409 17.5709C24.5559 18.0176 24.2778 18.4197 23.9251 18.7503C23.5724 19.081 23.1533 19.3326 22.6956 19.4884L21.0219 20.057C20.7981 20.1334 20.5947 20.2601 20.4275 20.4275C20.2604 20.5949 20.1339 20.7984 20.0578 21.0224L19.4879 22.6961C19.3322 23.1538 19.0805 23.5729 18.7499 23.9256C18.4193 24.2783 18.0172 24.5564 17.5705 24.7414C17.1239 24.9263 16.6429 25.0139 16.1597 24.9982C15.6765 24.9825 15.2022 24.864 14.7685 24.6504L13.1826 23.8704C12.9703 23.7659 12.7369 23.7116 12.5003 23.7116C12.2637 23.7116 12.0302 23.7659 11.8179 23.8704L10.232 24.6504C9.79831 24.864 9.32402 24.9825 8.84084 24.9982C8.35765 25.0139 7.87668 24.9263 7.43002 24.7414C6.98336 24.5564 6.58129 24.2783 6.25065 23.9256C5.92 23.5729 5.66839 23.1538 5.5126 22.6961L4.94399 21.0224C4.86749 20.7984 4.74054 20.5949 4.57294 20.4278C4.40534 20.2606 4.20157 20.1341 3.97736 20.0582L2.30492 19.4884C1.84716 19.3327 1.42787 19.0812 1.07505 18.7506C0.722229 18.42 0.44399 18.0179 0.258909 17.5713C0.0738286 17.1246 -0.0138348 16.6436 0.00177135 16.1603C0.0173775 15.677 0.135894 15.2027 0.34941 14.7689L1.13062 13.1829C1.23511 12.9706 1.28944 12.7372 1.28944 12.5006C1.28944 12.264 1.23511 12.0305 1.13062 11.8182L0.34941 10.2323C0.135894 9.7985 0.0173775 9.32413 0.00177135 8.84088C-0.0138348 8.35762 0.0738286 7.87659 0.258909 7.42991C0.44399 6.98323 0.722229 6.58117 1.07505 6.25058C1.42787 5.91999 1.84716 5.66846 2.30492 5.5128L3.97736 4.94419C4.20161 4.86785 4.4053 4.74097 4.57269 4.57336C4.74009 4.40575 4.8667 4.20189 4.94276 3.97754L5.51136 2.30507C5.6551 1.88231 5.88072 1.49201 6.17534 1.15646C6.46995 0.820919 6.82779 0.546709 7.2284 0.349498C7.62902 0.152286 8.06456 0.0359371 8.51016 0.00709748C8.95575 -0.0217421 9.40266 0.0374927 9.82535 0.181418ZM7.26662 2.90088L6.69802 4.57459C6.53034 5.06758 6.25165 5.51545 5.88345 5.88366C5.51525 6.25187 5.06738 6.53056 4.5744 6.69824L2.90196 7.26686C2.6938 7.33761 2.50315 7.45196 2.34272 7.60229C2.1823 7.75261 2.05579 7.93544 1.97167 8.13856C1.88755 8.34167 1.84774 8.56041 1.8549 8.78014C1.86206 8.99988 1.91603 9.21555 2.0132 9.41276L2.79441 10.9987C3.02452 11.4659 3.14418 11.9798 3.14418 12.5006C3.14418 13.0214 3.02452 13.5352 2.79441 14.0025L2.0132 15.5872C1.91603 15.7844 1.86206 16.0001 1.8549 16.2198C1.84774 16.4395 1.88755 16.6583 1.97167 16.8614C2.05579 17.0645 2.1823 17.2473 2.34272 17.3976C2.50315 17.548 2.6938 17.6623 2.90196 17.7331L4.5744 18.3017C5.06738 18.4694 5.51525 18.7481 5.88345 19.1163C6.25165 19.4845 6.53034 19.9324 6.69802 20.4253L7.26662 22.0991C7.33703 22.3075 7.4512 22.4984 7.60145 22.659C7.75171 22.8197 7.93459 22.9464 8.13782 23.0305C8.34105 23.1147 8.55993 23.1544 8.77978 23.1471C8.99962 23.1397 9.21535 23.0854 9.41249 22.9878L10.9984 22.2066C11.4656 21.9765 11.9795 21.8568 12.5003 21.8568C13.0211 21.8568 13.5349 21.9765 14.0021 22.2066L15.5868 22.9878C15.6478 23.0167 15.7096 23.0418 15.7722 23.0632C16.1601 23.1953 16.5844 23.1679 16.9521 22.9871C17.3197 22.8063 17.6005 22.4868 17.7327 22.0991L18.3013 20.4253C18.469 19.9324 18.7477 19.4845 19.1159 19.1163C19.4841 18.7481 19.9319 18.4694 20.4249 18.3017L22.0986 17.7331C22.1604 17.7117 22.2222 17.6861 22.284 17.6564C22.4661 17.5668 22.6287 17.4421 22.7626 17.2896C22.8965 17.1371 22.999 16.9597 23.0643 16.7675C23.1296 16.5754 23.1565 16.3722 23.1432 16.1697C23.13 15.9672 23.0771 15.7692 22.9873 15.5872L22.2061 14.0012C21.9762 13.5342 21.8567 13.0205 21.8567 12.5C21.8567 11.9794 21.9762 11.4658 22.2061 10.9987L22.9873 9.41276C23.0845 9.21555 23.1385 8.99988 23.1456 8.78014C23.1528 8.56041 23.113 8.34167 23.0289 8.13856C22.9447 7.93544 22.8182 7.75261 22.6578 7.60229C22.4974 7.45196 22.3067 7.33761 22.0986 7.26686L20.4249 6.69824C19.9319 6.53056 19.4841 6.25187 19.1159 5.88366C18.7477 5.51545 18.469 5.06758 18.3013 4.57459L17.7327 2.90212L17.6968 2.80817L17.656 2.7167L17.5794 2.57949C17.3763 2.25512 17.0601 2.01764 16.692 1.91305C16.3239 1.80846 15.9301 1.8442 15.5868 2.01335L14.0009 2.79457C13.5338 3.02448 13.0202 3.14405 12.4997 3.14405C11.9791 3.14405 11.4655 3.02448 10.9984 2.79457L9.41249 2.01335C9.21534 1.91639 8.99978 1.86259 8.7802 1.85554C8.56061 1.84849 8.34204 1.88835 8.13908 1.97246C7.93611 2.05657 7.75342 2.183 7.60319 2.34331C7.45296 2.50362 7.33864 2.69413 7.26786 2.90212M10.0899 15.4549L16.7895 8.75514C16.955 8.58927 17.177 8.49216 17.4111 8.48336C17.6452 8.47456 17.874 8.55471 18.0514 8.70769C18.2288 8.86068 18.3417 9.07516 18.3674 9.30801C18.3932 9.54086 18.3298 9.77481 18.19 9.96283L18.0998 10.0667L10.6832 17.4834C10.5155 17.6511 10.2899 17.7481 10.0529 17.7545C9.81584 17.761 9.58533 17.6763 9.40878 17.518L9.31608 17.4216L6.22583 13.7132C6.0764 13.5334 6.00041 13.3038 6.01309 13.0704C6.02577 12.8369 6.12618 12.6169 6.2942 12.4543C6.46222 12.2918 6.68545 12.1987 6.91918 12.1938C7.15291 12.1888 7.37988 12.2724 7.55464 12.4277L7.64982 12.5265L10.0899 15.4549Z" fill="#5075C6"/>
<path fill-rule="evenodd" clip-rule="evenodd" d="M9.82535 0.181418C9.96379 0.229215 10.0994 0.285252 10.232 0.349531L11.8179 1.13076C12.0302 1.23524 12.2637 1.28958 12.5003 1.28958C12.7369 1.28958 12.9703 1.23524 13.1826 1.13076L14.7685 0.349531C15.169 0.152349 15.6045 0.0359985 16.05 0.00712326C16.4955 -0.021752 16.9423 0.0374137 17.365 0.181241C17.7876 0.325069 18.1778 0.550741 18.5132 0.845371C18.8486 1.14 19.1227 1.49782 19.3198 1.89839L19.4101 2.09864L19.4879 2.30507L20.0565 3.97754C20.2111 4.43243 20.5683 4.78844 21.0219 4.94295L22.6956 5.51157C23.1534 5.66733 23.5727 5.91898 23.9255 6.24972C24.2784 6.58046 24.5565 6.98267 24.7415 7.42949C24.9265 7.87631 25.014 8.35745 24.9982 8.84078C24.9824 9.32412 24.8637 9.79852 24.6499 10.2323L23.8699 11.8182C23.7654 12.0305 23.7111 12.264 23.7111 12.5006C23.7111 12.7372 23.7654 12.9706 23.8699 13.1829L24.6499 14.7689C24.8634 15.2026 24.982 15.6769 24.9977 16.1601C25.0134 16.6433 24.9258 17.1243 24.7409 17.5709C24.5559 18.0176 24.2778 18.4197 23.9251 18.7503C23.5724 19.081 23.1533 19.3326 22.6956 19.4884L21.0219 20.057C20.7981 20.1334 20.5947 20.2601 20.4275 20.4275C20.2604 20.5949 20.1339 20.7984 20.0578 21.0224L19.4879 22.6961C19.3322 23.1538 19.0805 23.5729 18.7499 23.9256C18.4193 24.2783 18.0172 24.5564 17.5705 24.7414C17.1239 24.9263 16.6429 25.0139 16.1597 24.9982C15.6765 24.9825 15.2022 24.864 14.7685 24.6504L13.1826 23.8704C12.9703 23.7659 12.7369 23.7116 12.5003 23.7116C12.2637 23.7116 12.0302 23.7659 11.8179 23.8704L10.232 24.6504C9.79831 24.864 9.32402 24.9825 8.84084 24.9982C8.35765 25.0139 7.87668 24.9263 7.43002 24.7414C6.98336 24.5564 6.58129 24.2783 6.25065 23.9256C5.92 23.5729 5.66839 23.1538 5.5126 22.6961L4.94399 21.0224C4.86749 20.7984 4.74054 20.5949 4.57294 20.4278C4.40534 20.2606 4.20157 20.1341 3.97736 20.0582L2.30492 19.4884C1.84716 19.3327 1.42787 19.0812 1.07505 18.7506C0.722229 18.42 0.44399 18.0179 0.258909 17.5713C0.0738286 17.1246 -0.0138348 16.6436 0.00177135 16.1603C0.0173775 15.677 0.135894 15.2027 0.34941 14.7689L1.13062 13.1829C1.23511 12.9706 1.28944 12.7372 1.28944 12.5006C1.28944 12.264 1.23511 12.0305 1.13062 11.8182L0.34941 10.2323C0.135894 9.7985 0.0173775 9.32413 0.00177135 8.84088C-0.0138348 8.35762 0.0738286 7.87659 0.258909 7.42991C0.44399 6.98323 0.722229 6.58117 1.07505 6.25058C1.42787 5.91999 1.84716 5.66846 2.30492 5.5128L3.97736 4.94419C4.20161 4.86785 4.4053 4.74097 4.57269 4.57336C4.74009 4.40575 4.8667 4.20189 4.94276 3.97754L5.51136 2.30507C5.6551 1.88231 5.88072 1.49201 6.17534 1.15646C6.46995 0.820919 6.82779 0.546709 7.2284 0.349498C7.62902 0.152286 8.06456 0.0359371 8.51016 0.00709748C8.95575 -0.0217421 9.40266 0.0374927 9.82535 0.181418ZM16.7895 8.75514L10.0899 15.4549L7.64982 12.5265L7.55464 12.4277C7.37988 12.2724 7.15291 12.1888 6.91918 12.1938C6.68545 12.1987 6.46222 12.2918 6.2942 12.4543C6.12618 12.6169 6.02577 12.8369 6.01309 13.0704C6.00041 13.3038 6.0764 13.5334 6.22583 13.7132L9.31608 17.4216L9.40878 17.518C9.58533 17.6763 9.81584 17.761 10.0529 17.7545C10.2899 17.7481 10.5155 17.6511 10.6832 17.4834L18.0998 10.0667L18.19 9.96283C18.3298 9.77481 18.3932 9.54086 18.3674 9.30801C18.3417 9.07516 18.2288 8.86068 18.0514 8.70769C17.874 8.55471 17.6452 8.47456 17.4111 8.48336C17.177 8.49216 16.955 8.58927 16.7895 8.75514Z" fill="#A3B7E5"/>
</svg>
