<svg width="22" height="21" viewBox="0 0 22 21" fill="none" xmlns="http://www.w3.org/2000/svg">
<path d="M9.75 0.0958839C9.63502 0.0329732 9.50606 0 9.375 0C9.24394 0 9.11498 0.0329732 9 0.0958839L1.09375 4.40838C0.41875 4.7787 0 5.48495 0 6.25057V14.0631C0 14.8919 0.32924 15.6867 0.915291 16.2728C1.50134 16.8588 2.2962 17.1881 3.125 17.1881H15.625C16.4538 17.1881 17.2487 16.8588 17.8347 16.2728C18.4208 15.6867 18.75 14.8919 18.75 14.0631V6.25057C18.7502 5.87374 18.6487 5.50383 18.4562 5.17988C18.2637 4.85592 17.9873 4.58993 17.6562 4.40995L9.75 0.0958839ZM1.83906 5.78182L9.375 1.67245L16.9094 5.78182C16.9552 5.80578 16.9958 5.83599 17.0312 5.87245L9.375 10.0474L1.71875 5.87245C1.75418 5.83581 1.79378 5.8052 1.83906 5.78182ZM9.75 11.624L17.1875 7.5662V14.0631C17.1875 14.4775 17.0229 14.8749 16.7299 15.1679C16.4368 15.4609 16.0394 15.6256 15.625 15.6256H3.125C2.7106 15.6256 2.31317 15.4609 2.02015 15.1679C1.72712 14.8749 1.5625 14.4775 1.5625 14.0631V7.5662L9 11.6256C9.11498 11.6885 9.24394 11.7215 9.375 11.7215C9.50606 11.7215 9.63502 11.6869 9.75 11.624ZM3.54375 18.7506C3.81802 19.2256 4.2125 19.6201 4.68754 19.8944C5.16259 20.1687 5.70146 20.3131 6.25 20.3131H15.625C17.2826 20.3131 18.8723 19.6546 20.0444 18.4825C21.2165 17.3104 21.875 15.7207 21.875 14.0631V7.81307C21.875 7.26453 21.7306 6.72566 21.4563 6.25062C21.182 5.77557 20.7875 5.38109 20.3125 5.10682V14.0631C20.3125 15.3063 19.8186 16.4986 18.9396 17.3776C18.0605 18.2567 16.8682 18.7506 15.625 18.7506H3.54375Z" fill="black"/>
</svg>
