<svg width="24" height="27" viewBox="0 0 24 27" fill="none" xmlns="http://www.w3.org/2000/svg">
<path d="M6.875 12.5C8.69836 12.5 10.447 13.2243 11.7364 14.5136C13.0257 15.803 13.75 17.5516 13.75 19.375C13.75 21.1984 13.0257 22.947 11.7364 24.2364C10.447 25.5257 8.69836 26.25 6.875 26.25C5.05164 26.25 3.30295 25.5257 2.01364 24.2364C0.724328 22.947 0 21.1984 0 19.375C0 17.5516 0.724328 15.803 2.01364 14.5136C3.30295 13.2243 5.05164 12.5 6.875 12.5ZM13.9112 1.12676e-10C14.6566 -6.66656e-06 15.3714 0.29582 15.8988 0.8225L19.4137 4.335L22.9238 7.85125C23.45 8.37875 23.7463 9.09375 23.7463 9.83875V22.1875C23.7463 22.9334 23.4499 23.6488 22.9225 24.1762C22.395 24.7037 21.6797 25 20.9338 25L12.7375 25.0012C13.27 24.4462 13.725 23.8137 14.085 23.1262L20.935 23.125C21.1836 23.125 21.4221 23.0262 21.5979 22.8504C21.7737 22.6746 21.8725 22.4361 21.8725 22.1875L21.87 10.0037H16.5625C15.85 10.0039 15.1641 9.73358 14.6432 9.24749C14.1223 8.76141 13.8053 8.09576 13.7563 7.385L13.75 7.1925L13.7487 1.875H6.5625C6.31386 1.875 6.0754 1.97377 5.89959 2.14959C5.72377 2.3254 5.625 2.56386 5.625 2.8125L5.62375 11.345C4.97981 11.4454 4.35028 11.6229 3.74875 11.8737L3.75 2.8125C3.75 2.06658 4.04632 1.35121 4.57376 0.823762C5.10121 0.296316 5.81658 1.12677e-10 6.5625 1.12676e-10H13.9112ZM9.8175 16.4338C9.75944 16.3755 9.69047 16.3294 9.61454 16.2979C9.53861 16.2664 9.45721 16.2501 9.375 16.2501C9.29279 16.2501 9.21139 16.2664 9.13546 16.2979C9.05953 16.3294 8.99056 16.3755 8.9325 16.4338L6.875 18.4912L4.8175 16.4338C4.70031 16.3164 4.54129 16.2504 4.37544 16.2503C4.20959 16.2502 4.05048 16.3159 3.93313 16.4331C3.81577 16.5503 3.74977 16.7093 3.74965 16.8752C3.74954 17.041 3.81531 17.2001 3.9325 17.3175L5.99125 19.375L3.9325 21.4325C3.87447 21.4906 3.82846 21.5596 3.79709 21.6355C3.76571 21.7114 3.74959 21.7927 3.74965 21.8748C3.74971 21.9569 3.76594 22.0382 3.79742 22.1141C3.8289 22.1899 3.87502 22.2588 3.93313 22.3169C3.99124 22.3749 4.0602 22.4209 4.1361 22.4523C4.21199 22.4837 4.29332 22.4998 4.37544 22.4997C4.45756 22.4997 4.53887 22.4834 4.61472 22.452C4.69057 22.4205 4.75947 22.3744 4.8175 22.3162L6.875 20.26L8.9325 22.3175C8.99053 22.3756 9.05943 22.4217 9.13528 22.4532C9.21113 22.4847 9.29244 22.5009 9.37456 22.501C9.45668 22.501 9.53801 22.4849 9.6139 22.4535C9.68979 22.4222 9.75877 22.3762 9.81688 22.3181C9.87499 22.2601 9.9211 22.1912 9.95258 22.1153C9.98406 22.0395 10.0003 21.9582 10.0003 21.8761C10.0004 21.7939 9.98429 21.7126 9.95292 21.6367C9.92154 21.5608 9.87553 21.4919 9.8175 21.4338L7.75875 19.375L9.8175 17.3175C9.93467 17.2003 10.0005 17.0414 10.0005 16.8756C10.0005 16.7099 9.93467 16.551 9.8175 16.4338ZM15.625 7.1925C15.625 7.6675 15.9775 8.05875 16.435 8.12125L16.5625 8.13L20.5513 8.12875L15.625 3.19875V7.1925Z" fill="#B07373"/>
</svg>
